<svg xmlns="http://www.w3.org/2000/svg" xmlns:xlink="http://www.w3.org/1999/xlink" version="1.1" x="0px" y="0px" viewBox="0 0 100 125" style="enable-background:new 0 0 100 100;" xml:space="preserve"><circle cx="44.6403809" cy="57.1560059" r="2.0625"/><circle cx="66.1403809" cy="57.1560059" r="2.0625"/><path d="M58.578125,63.7392578c-0.2763672,0-0.5,0.2236328-0.5,0.5  c0,1.1855469-0.9638672,2.1494141-2.1494141,2.1494141s-2.1494141-0.9638672-2.1494141-2.1494141c0-0.2763672-0.2236328-0.5-0.5-0.5  s-0.5,0.2236328-0.5,0.5c0,1.7363281,1.4130859,3.1494141,3.1494141,3.1494141s3.1494141-1.4130859,3.1494141-3.1494141  C59.078125,63.9628906,58.8544922,63.7392578,58.578125,63.7392578z"/><path d="M30.7558594,69.6757812c3.9509277,0,7.3359375-2.4471436,8.7335205-5.9030762  c0.5664062,1.2386475,1.3533936,2.5123291,2.4666748,3.6931152c2.284668,2.4233398,5.432251,3.9471436,9.3864746,4.5544434  c-3.6068115,4.5012207-3.8022461,10.2197266-3.8093262,10.4865723c-0.0126953,0.5517578,0.4228516,1.0087891,0.9746094,1.0234375  c0.0087891,0,0.0175781,0,0.0253906,0c0.5400391,0,0.9853516-0.4306641,1-0.9736328  c0.0008545-0.0557861,0.1723633-4.8730469,2.979248-8.777832c0.631958,1.2860107,1.7247314,2.5024414,3.4162598,2.5024414  c1.7105713,0,2.7589111-1.2706299,3.338623-2.6169434c2.8859863,3.9243164,3.0560303,8.8359375,3.0568848,8.892334  c0.0146484,0.5429688,0.4599609,0.9736328,1,0.9736328c0.0078125,0,0.0166016,0,0.0253906,0  c0.5517578-0.0146484,0.9873047-0.4716797,0.9746094-1.0234375c-0.0070801-0.2692871-0.2060547-6.0930176-3.9117432-10.6125488  c10.7576904-1.9904785,12.8509521-10.456543,13.2547607-13.5755615c0.6289062,0.1673584,1.2817383,0.2750244,1.9733887,0.2750244  c0.4433594,0,0.8339844-0.2919922,0.9589844-0.7167969c0.2490234-0.84375,5.9941406-20.7910156-2.5830078-32.9599609  c-3.8330078-5.4375-9.9267578-8.4257812-18.1123047-8.8837891c-7.640625-0.4316406-13.4882812,1.7636719-17.3613281,6.515625  c-6.3321533,7.7689209-5.9465332,20.5263672-4.8308105,28.776123c-0.9519043-0.314209-1.9487305-0.4938965-2.9562988-0.4938965  c-5.1953125,0-9.421875,4.2275391-9.421875,9.4228516S25.5605469,69.6757812,30.7558594,69.6757812z M55.9287109,74.28125  c-1.005249,0-1.59021-1.2089844-1.8682861-2.0102539c0.4801025,0.0229492,0.9554443,0.0512695,1.4552002,0.0512695  c0.7431641,0,1.4453125-0.0341797,2.1291504-0.0830078C57.3986816,73.072998,56.8791504,74.28125,55.9287109,74.28125z   M55.515625,70.3222656c-5.375,0-9.4414062-1.4169922-12.0878906-4.2109375  c-3.5664062-3.7646484-3.3330078-8.8476562-3.3310547-8.8984375c0.0002441-0.0041504-0.0018311-0.0075684-0.001709-0.0115967  c1.5939941-2.7215576,2.5053711-7.3170166,2.6853027-13.585083c1.953125,3.6210938,5.6386719,7.9091797,12.3056641,8.6992188  c0.4238281,0.0507812,0.8466797-0.1826172,1.0273438-0.578125c0.1796875-0.3955078,0.0839844-0.8623047-0.2373047-1.1542969  c-0.0175781-0.0166016-1.25-1.1689453-1.9628906-3.6279297C55.9160156,49.5634766,59.25,52.6357422,64.2158203,53.515625  c0.4189453,0.0761719,0.8300781-0.1230469,1.0400391-0.4882812c0.2099609-0.3662109,0.1660156-0.8261719-0.1064453-1.1474609  c-0.0976562-0.1152344-1.9482422-2.3554688-1.2958984-5.9023438c1.2209473,3.5506592,3.7468262,9.2268066,7.8967285,11.5556641  C71.612793,59.7167969,70.1875,70.3222656,55.515625,70.3222656z M40.0947266,23.8095703  c3.1582031-3.8720703,7.8574219-5.8291016,13.9853516-5.8291016c0.5585938,0,1.1298828,0.0166016,1.7128906,0.0488281  c7.5419922,0.4228516,13.1220703,3.1259766,16.5849609,8.0361328c7.1191406,10.0927734,3.4628906,26.7246094,2.5087891,30.4785156  c-6.7998047-0.9082031-9.9492188-13.8984375-9.9814453-14.0341797c-0.0966797-0.4082031-0.4375-0.7128906-0.8535156-0.7626953  c-0.4287109-0.046875-0.8203125,0.1650391-1.0107422,0.5371094c-1.8984375,3.7197266-1.4287109,6.7529297-0.6787109,8.6689453  c-6.2392578-2.2861328-8.9775391-8.6923828-9.0068359-8.7646484c-0.1796875-0.4316406-0.6318359-0.6855469-1.0996094-0.5996094  c-0.4609375,0.0820312-0.8037109,0.4736328-0.8232422,0.9414062c-0.1386719,3.3359375,0.6728516,5.7519531,1.5009766,7.3173828  c-8.3125-2.4287109-10.1064453-11.4580078-10.1845703-11.875c-0.0966797-0.5126953-0.5800781-0.8613281-1.0908203-0.8095703  C41.1386719,37.21875,40.75,37.6650391,40.765625,38.1865234c0.4130859,13.4648438-1.8525391,17.7675781-3.2402344,19.1347656  c-0.2226562,0.2197266-0.4277344,0.3671875-0.6035156,0.4677734C35.890625,53.2675781,32.0429688,33.6845703,40.0947266,23.8095703z   M30.7558594,52.8310547c1.1463623,0,2.2784424,0.27771,3.2999268,0.7851562  c0.5279541,3.1939697,1.0831299,5.3417969,1.1590576,5.6289062c0.1025391,0.3867188,0.4257812,0.6757812,0.8212891,0.7333984  c0.0302734,0.0048828,0.1132812,0.0146484,0.2392578,0.0146484c0.3529053,0,1.0437012-0.0872803,1.8410645-0.5976562  c0.0327148,0.2844238,0.0612793,0.5697021,0.0612793,0.8583984c0,4.0927734-3.3291016,7.421875-7.421875,7.421875  s-7.421875-3.3291016-7.421875-7.421875S26.6630859,52.8310547,30.7558594,52.8310547z"/><text x="0" y="115" fill="#000000" font-size="5px" font-weight="bold" font-family="'Helvetica Neue', Helvetica, Arial-Unicode, Arial, Sans-serif">Created by Nook Fulloption</text><text x="0" y="120" fill="#000000" font-size="5px" font-weight="bold" font-family="'Helvetica Neue', Helvetica, Arial-Unicode, Arial, Sans-serif">from the Noun Project</text></svg>