<?xml version="1.0" encoding="utf-8"?>
<!-- Generator: Adobe Illustrator 25.4.1, SVG Export Plug-In . SVG Version: 6.00 Build 0)  -->
<svg version="1.1" id="Layer_1" xmlns="http://www.w3.org/2000/svg" xmlns:xlink="http://www.w3.org/1999/xlink" x="0px" y="0px"
	 viewBox="0 0 48 48" style="enable-background:new 0 0 48 48;" xml:space="preserve">
<style type="text/css">
	.st0{fill:#F97F58;}
</style>
<g>
	<path class="st0" d="M39,46c-0.3,0-0.5-0.1-0.7-0.3L24,31.4L9.7,45.7c-0.4,0.4-1,0.4-1.4,0c0,0,0,0,0,0l-6-6c-0.4-0.4-0.4-1,0-1.4
		c0,0,0,0,0,0L16.6,24L2.3,9.7c-0.4-0.4-0.4-1,0-1.4c0,0,0,0,0,0l6-6c0.4-0.4,1-0.4,1.4,0c0,0,0,0,0,0L24,16.6L38.3,2.3
		c0.4-0.4,1-0.4,1.4,0c0,0,0,0,0,0l6,6c0.4,0.4,0.4,1,0,1.4c0,0,0,0,0,0L31.4,24l14.3,14.3c0.4,0.4,0.4,1,0,1.4c0,0,0,0,0,0l-6,6
		C39.5,45.9,39.3,46,39,46z M24,29c0.3,0,0.5,0.1,0.7,0.3L39,43.6l4.6-4.6L29.3,24.7c-0.4-0.4-0.4-1,0-1.4c0,0,0,0,0,0L43.6,9
		L39,4.4L24.7,18.7c-0.4,0.4-1,0.4-1.4,0c0,0,0,0,0,0L9,4.4L4.4,9l14.3,14.3c0.4,0.4,0.4,1,0,1.4c0,0,0,0,0,0L4.4,39L9,43.6
		l14.3-14.3C23.5,29.1,23.7,29,24,29z M33.5,3.1L33.5,3.1c-0.4-0.4-1-0.4-1.4,0l-1,1c-0.4,0.4-0.4,1,0,1.4l0,0c0.4,0.4,1,0.4,1.4,0
		l1-1C33.9,4.1,33.9,3.5,33.5,3.1z M29.5,7.1L29.5,7.1c-0.4-0.4-1-0.4-1.4,0l-4.5,4.5c-0.4,0.4-0.4,1,0,1.4l0,0c0.4,0.4,1,0.4,1.4,0
		l4.5-4.5C29.9,8.1,29.9,7.5,29.5,7.1z"/>
</g>
</svg>
