<svg xmlns="http://www.w3.org/2000/svg" xmlns:xlink="http://www.w3.org/1999/xlink" version="1.1" x="0px" y="0px" viewBox="0 0 100 125" style="enable-background:new 0 0 100 100;" xml:space="preserve"><circle cx="36.8203125" cy="58.2694702" r="2.0625"/><circle cx="58.3203125" cy="58.2694702" r="2.0625"/><path d="M48.1083984,68.5019531c1.7363281,0,3.1494141-1.4125977,3.1494141-3.1489258  c0-0.2763672-0.2236328-0.5-0.5-0.5s-0.5,0.2236328-0.5,0.5c0,1.1850586-0.9638672,2.1489258-2.1494141,2.1489258  c-1.1845703,0-2.1484375-0.9638672-2.1484375-2.1489258c0-0.2763672-0.2236328-0.5-0.5-0.5s-0.5,0.2236328-0.5,0.5  C44.9599609,67.0893555,46.3720703,68.5019531,48.1083984,68.5019531z"/><path d="M30.765625,69.0019531c0.0654297,0,0.1318359-0.0063477,0.1972656-0.0195312  c0.4160156-0.0839844,0.7333984-0.4204102,0.7929688-0.840332c0.1149902-0.8081665,0.7144775-1.0083618,1.1878662-1.0352783  c0.3521729,0.5001221,0.741333,0.9949341,1.1920166,1.4727783c2.284668,2.4235229,5.4327393,3.9472656,9.3873291,4.5545044  c-3.6068115,4.5006714-3.8031006,10.2192383-3.8101807,10.4860229c-0.0126953,0.5517578,0.4228516,1.0092773,0.9746094,1.0234375  c0.0087891,0,0.0175781,0.0004883,0.0253906,0.0004883c0.5400391,0,0.9853516-0.4311523,1-0.9736328  c0.0008545-0.0557861,0.1729736-4.8726196,2.9798584-8.7774048c0.6322021,1.2857056,1.7247314,2.5015259,3.4156494,2.5015259  c1.7110596,0,2.7590332-1.2703247,3.338623-2.6164551c2.8862305,3.9242554,3.0570068,8.8359985,3.0578613,8.892334  c0.0146484,0.5424805,0.4599609,0.9736328,1,0.9736328c0.0078125,0,0.0166016-0.0004883,0.0253906-0.0004883  c0.5517578-0.0141602,0.9882812-0.4716797,0.9746094-1.0234375c-0.0070801-0.2692871-0.2067871-6.0928955-3.9125977-10.6121216  c5.4144287-1.00177,8.6391602-3.6412964,10.5516357-6.4194336c0.0477295,0.0012207,0.083374,0.0032349,0.144165,0.0032349  c0.8583984,0,2.984375-0.1621094,5.2724609-1.5693359c2.6074219-1.6044922,5.9580078-5.2099609,7.1113281-13.277832  c0.0566406-0.3959961-0.1289062-0.7875977-0.4697266-0.9956055c-0.3398438-0.2075195-0.7744141-0.1923828-1.1005859,0.0390625  c-0.0117188,0.0087891-0.8447266,0.5625-2.2207031,0.5693359c3.0136719-2.0830078,8.1484375-6.3491211,8.1972656-11.265625  c0.0029297-0.3076172-0.1367188-0.5991211-0.3779297-0.7910156c-0.2402344-0.1918945-0.5537109-0.2612305-0.8564453-0.190918  c-0.0410156,0.0083008-3.5068359,0.8032227-6.5361328-0.9418945c1.7333984-0.8481445,4.2470703-2.5859375,5.3427734-5.8286133  c0.1142578-0.3364258,0.0400391-0.7080078-0.1933594-0.9760742c-0.2333984-0.269043-0.5908203-0.390625-0.9404297-0.3261719  c-0.0732422,0.0141602-6.5195312,1.1987305-10.6035156-0.7124023c1.8642578-0.8574219,4.5830078-2.5761719,6.0253906-5.6982422  c0.1171875-0.2514648,0.1230469-0.5395508,0.0185547-0.7963867c-0.1035156-0.2563477-0.3105469-0.4584961-0.5693359-0.5571289  c-0.2695312-0.1035156-6.6894531-2.5415039-12.8779297-3.7353516c-8.8525391-1.7075195-18.5927734,2.6665039-19.0029297,2.8530273  c-0.5019531,0.2290039-0.7236328,0.8217773-0.4951172,1.3242188c0.2285156,0.5029297,0.8232422,0.7231445,1.3242188,0.4960938  c0.0947266-0.0429688,9.5810547-4.2949219,17.7949219-2.7094727c4.5556641,0.8789062,9.3710938,2.5009766,11.4658203,3.246582  c-2.1103516,3.2983398-6.0957031,4.3535156-6.1376953,4.3642578c-0.3603516,0.090332-0.640625,0.3735352-0.7275391,0.7348633  c-0.0878906,0.3608398,0.0322266,0.7407227,0.3115234,0.9858398c3.2626953,2.8681641,9.0039062,2.7319336,11.9658203,2.4287109  c-1.7685547,2.7871094-4.9560547,3.6547852-4.9912109,3.6640625c-0.3544922,0.0908203-0.6308594,0.3676758-0.7207031,0.7216797  c-0.0908203,0.3540039,0.0195312,0.7294922,0.2871094,0.9785156c2.8554688,2.6616211,6.4296875,2.800293,8.3525391,2.6337891  c-1.1601562,5.1728516-9.0722656,9.6508789-9.1582031,9.6992188c-0.3359375,0.1875-0.5351562,0.5517578-0.5107422,0.9360352  c0.0244141,0.3837891,0.2666016,0.7202148,0.6240234,0.8642578c1.8408203,0.7441406,3.3964844,0.6845703,4.5058594,0.4277344  c-1.8210449,9.1276855-6.7141113,10.9729004-9.0539551,11.3262939c0.9726562-2.0303345,1.3535156-3.9226685,1.503418-5.0813599  c0.6289062,0.1673584,1.2817383,0.2750854,1.9733887,0.2750854c0.5527344,0,1-0.4477539,1-1s-0.4472656-1-1-1  c-7.3203125,0-10.7011719-13.9428711-10.734375-14.0834961c-0.0966797-0.4082031-0.4375-0.7128906-0.8535156-0.7631836  c-0.4296875-0.0483398-0.8203125,0.1655273-1.0107422,0.5380859c-1.8984375,3.7192383-1.4296875,6.7524414-0.6796875,8.6674805  c-6.2392578-2.2861328-8.9765625-8.6914062-9.0058594-8.7631836c-0.1806641-0.4321289-0.6289062-0.684082-1.0996094-0.6005859  c-0.4609375,0.0825195-0.8037109,0.4736328-0.8232422,0.9423828c-0.1386719,3.3359375,0.6728516,5.7514648,1.5,7.3164062  c-8.3134766-2.4277344-10.1064453-11.4580078-10.1845703-11.8745117c-0.0966797-0.5136719-0.5771484-0.862793-1.0908203-0.8105469  c-0.5195312,0.0566406-0.9082031,0.5024414-0.8925781,1.0244141c0.4130859,13.4638672-1.8515625,17.7675781-3.2392578,19.1347656  c-0.6650391,0.6552734-1.171875,0.6552734-1.2382812,0.6733398c-0.5361328-0.0478516-1.0166016,0.3164062-1.0947266,0.8496094  c-0.0800781,0.5463867,0.2978516,1.0541992,0.84375,1.1342773c0.0302734,0.0043945,0.1132812,0.0146484,0.2392578,0.0146484  c0.3679199,0,1.1025391-0.0934448,1.9431152-0.6646729c0.1733398,1.319519,0.5793457,3.0802612,1.4799805,4.8847046  c-0.4265137,0.1425171-0.8430176,0.3471069-1.1896973,0.6749878c-1.2138672-1.8676758-3.4804688-5.1547852-6.0693359-7.9165039  c-2.8974609-3.090332-4.125-7.1313477-3.5507812-11.6865234c0.8847656-7.0185547,6.0888672-14.668457,12.9501953-19.0356445  c0.4658203-0.296875,0.6035156-0.9150391,0.3066406-1.3808594c-0.296875-0.4663086-0.9150391-0.6035156-1.3808594-0.3066406  c-7.4492188,4.7421875-12.8896484,12.7783203-13.8603516,20.4731445c-0.6513672,5.1650391,0.7587891,9.765625,4.0761719,13.3046875  c3.6289062,3.8710938,6.7148438,9.0097656,6.7460938,9.0610352C30.0898438,68.8208008,30.4179688,69.0019531,30.765625,69.0019531z   M48.1083984,75.3945312c-1.0053711,0-1.5900879-1.2085571-1.8681641-2.0098267  c0.4799805,0.0229492,0.9553223,0.0513306,1.4550781,0.0513306c0.7431641,0,1.4453125-0.0341797,2.1292725-0.0830688  C49.5786133,74.1868286,49.0593262,75.3945312,48.1083984,75.3945312z M34.9609375,44.7299805  c1.9521484,3.6210938,5.6376953,7.9091797,12.3046875,8.6992188c0.4355469,0.0463867,0.8398438-0.1826172,1.0214844-0.5742188  c0.1826172-0.3916016,0.0898438-0.8583984-0.2265625-1.1538086c-0.0732422-0.0693359-1.2734375-1.2216797-1.9707031-3.6367188  c2.0019531,2.6083984,5.3369141,5.684082,10.3056641,6.5649414c0.4189453,0.0742188,0.8359375-0.1235352,1.0449219-0.4921875  s0.1630859-0.8286133-0.1152344-1.1484375c-0.0244141-0.027832-1.9414062-2.2958984-1.2890625-5.8911133  c1.2216797,3.5505371,3.7475586,9.2223511,7.8953857,11.5494995c-0.1278076,2.180481-1.5073242,12.7888794-16.2362061,12.7888794  c-5.3740234,0-9.4414062-1.4165039-12.0878906-4.2104492c-3.5664062-3.765625-3.3330078-8.8486328-3.3310547-8.8994141  c0.0002441-0.0036011-0.001709-0.0066528-0.0014648-0.0102539C33.8690186,55.5947266,34.7800293,50.9989014,34.9609375,44.7299805z"/><path d="M30.9248047,22.4692383c0.03125,0.0043945,3.1279297,0.4511719,4.7587891,2.8964844  c0.1914062,0.2866211,0.5068359,0.4438477,0.8300781,0.4438477c0.1640625,0,0.3310547-0.0405273,0.484375-0.1254883  c0.4550781-0.2514648,0.640625-0.8120117,0.4277344-1.2866211c-0.0654297-0.1469727-1.5771484-3.6337891,1.3662109-6.8251953  c0.3740234-0.4057617,0.3486328-1.0385742-0.0576172-1.4130859c-0.40625-0.3740234-1.0380859-0.3486328-1.4130859,0.0576172  c-1.8300781,1.9848633-2.3320312,4.0664062-2.3427734,5.7294922c-1.8388672-1.1914062-3.6816406-1.4458008-3.7939453-1.4599609  c-0.5351562-0.0727539-1.0449219,0.3139648-1.1171875,0.8603516C29.9941406,21.8930664,30.3789062,22.3950195,30.9248047,22.4692383  z"/><text x="0" y="115" fill="#000000" font-size="5px" font-weight="bold" font-family="'Helvetica Neue', Helvetica, Arial-Unicode, Arial, Sans-serif">Created by Nook Fulloption</text><text x="0" y="120" fill="#000000" font-size="5px" font-weight="bold" font-family="'Helvetica Neue', Helvetica, Arial-Unicode, Arial, Sans-serif">from the Noun Project</text></svg>