<svg xmlns="http://www.w3.org/2000/svg" xmlns:xlink="http://www.w3.org/1999/xlink" version="1.1" x="0px" y="0px" viewBox="0 0 100 125" style="enable-background:new 0 0 100 100;" xml:space="preserve"><circle cx="37.2824707" cy="55.2094727" r="2.0625"/><circle cx="58.7824707" cy="55.2094727" r="2.0625"/><path d="M51.2197266,61.7929688c-0.2763672,0-0.5,0.2236328-0.5,0.5  c0,1.1850586-0.9638672,2.1489258-2.1484375,2.1489258c-1.1855469,0-2.1494141-0.9638672-2.1494141-2.1489258  c0-0.2763672-0.2236328-0.5-0.5-0.5s-0.5,0.2236328-0.5,0.5c0,1.7363281,1.4130859,3.1489258,3.1494141,3.1489258  s3.1484375-1.4125977,3.1484375-3.1489258C51.7197266,62.0166016,51.4960938,61.7929688,51.2197266,61.7929688z"/><path d="M74.25,27.9667969c-0.1867676-0.7657471-0.7993164-1.3753662-1.5966797-1.5400391  c-1.7685547-0.3673706-3.2558594-0.1417236-4.1921387,0.1080322c-1.7753906-2.1981812-4.1616211-4.026062-7.0754395-5.3638916  c-7.6074219-3.4931641-17.4912109-3.1381836-24.5976562,0.8852539c-0.4804688,0.2719727-0.6494141,0.8823242-0.3769531,1.362793  c0.2714844,0.480957,0.8808594,0.6499023,1.3632812,0.3774414C44.3447266,20.074707,53.5,19.7514648,60.5517578,22.9882812  c5.0146484,2.3027344,8.2900391,6.1787109,9.2167969,10.8720703c2.1787109,14.3022461-0.0029297,20.5737305-2.2177734,23.315918  c-0.5969238,0.7390137-1.1967773,1.2205811-1.7211914,1.5368652c0.2583008-0.9268799,0.4008789-1.7341309,0.4794922-2.3417358  c0.1313477,0.0351562,0.2578125,0.0827026,0.3920898,0.1110229c0.5400391,0.1137695,1.0703125-0.2319336,1.1845703-0.7719727  C68,55.1699219,67.6542969,54.6391602,67.1132812,54.5253906c-6.5175781-1.3745117-9.5361328-13.8364258-9.5654297-13.9619141  c-0.0966797-0.4082031-0.4375-0.7128906-0.8535156-0.7631836c-0.4248047-0.0507812-0.8203125,0.1650391-1.0107422,0.5380859  c-1.8984375,3.7192383-1.4296875,6.7524414-0.6796875,8.6674805c-6.2382812-2.2861328-8.9765625-8.6914062-9.0058594-8.7631836  c-0.1796875-0.4321289-0.6298828-0.684082-1.0996094-0.6005859c-0.4609375,0.0825195-0.8037109,0.4736328-0.8232422,0.9423828  c-0.1386719,3.3359375,0.6728516,5.7514648,1.5,7.3164062C37.2617188,45.4731445,35.46875,36.4428711,35.390625,36.0263672  c-0.0966797-0.5131836-0.5800781-0.8666992-1.0908203-0.8105469c-0.5195312,0.0566406-0.9082031,0.5024414-0.8925781,1.0244141  c0.4921875,16.0136719-2.8496094,19.0698242-3.8857422,19.625c-0.4863281,0.2607422-0.6699219,0.8671875-0.4091797,1.3540039  c0.1806641,0.3364258,0.5263672,0.5273438,0.8828125,0.5273438c0.1591797,0,0.3212891-0.0380859,0.4716797-0.1186523  c0.1308594-0.0701904,0.2631836-0.151123,0.3955078-0.2411499c0.0991211,0.7520752,0.2783203,1.6506958,0.5751953,2.6152954  c-0.4194336-0.1732788-0.9016113-0.4559326-1.3798828-0.916626c-1.1845703-1.1420898-2.5898438-3.6513672-2.5507812-9.1191406  c0.0615234-8.7602539,0.9892578-18.4726562,7.4023438-24.0805664c0.4160156-0.3637695,0.4580078-0.9956055,0.0947266-1.4111328  c-0.3652344-0.4165039-0.9980469-0.4575195-1.4111328-0.0947266c-0.8156738,0.7133789-1.5424805,1.4874268-2.2038574,2.3039551  c-0.9299316-0.3139038-2.6062012-0.6870117-4.6779785-0.2575684c-0.7983398,0.1651001-1.4111328,0.7750244-1.5976562,1.5405884  c-4.2895508,0.555542-11.1425781,4.5061035-11.0439453,16.5634155  c0.1269531,15.4916992,13.2363281,31.3999023,13.7939453,32.0693359c0.1962891,0.2358398,0.4814453,0.3598633,0.7695312,0.3598633  c0.1884766,0,0.3779297-0.0532227,0.5458984-0.1630859c0.4248047-0.2773438,0.5742188-0.8295898,0.3476562-1.2836914  c-0.1108398-0.2231445-10.3774414-21.1362305-3.4301758-35.0252686c-0.4306641,3.1416626-0.567627,6.361084-0.5893555,9.46521  c-0.0351562,5.0102539,1.0498047,8.5878906,3.2265625,10.6333008c1.395752,1.3122559,2.8613281,1.6065063,3.6015625,1.6687012  c0.548584,1.1019287,1.2775879,2.2200928,2.2626953,3.2648926c2.284668,2.4235229,5.4326172,3.9472656,9.387207,4.5545044  c-3.6066895,4.5006714-3.8029785,10.2192383-3.8100586,10.4860229c-0.0126953,0.5517578,0.4228516,1.0092773,0.9746094,1.0234375  c0.0087891,0,0.0175781,0.0004883,0.0253906,0.0004883c0.5400391,0,0.9853516-0.4311523,1-0.9736328  c0.0009766-0.0557861,0.1728516-4.8726196,2.9799805-8.7774048c0.6320801,1.2857056,1.7248535,2.5015259,3.4165039,2.5015259  c1.7104492,0,2.7583008-1.2702026,3.3378906-2.616272c2.8859863,3.9241943,3.0566406,8.8358154,3.0576172,8.8921509  c0.0146484,0.5424805,0.4599609,0.9736328,1,0.9736328c0.0078125,0,0.0166016-0.0004883,0.0253906-0.0004883  c0.5517578-0.0141602,0.9882812-0.4716797,0.9746094-1.0234375c-0.0070801-0.2692871-0.2067871-6.0928955-3.9125977-10.6121216  c6.918457-1.2800903,10.2536621-5.236145,11.8583984-8.7316284c0.8779297-0.1934814,2.5437012-0.795105,4.1049805-2.675293  c2.1967773-2.6437378,4.3896484-8.152771,3.3808594-19.5922852c8.5893555,13.8114624-2.4465332,36.3323975-2.5615234,36.5644531  c-0.2265625,0.4541016-0.0771484,1.0058594,0.3476562,1.2832031c0.1679688,0.1098633,0.3583984,0.1630859,0.546875,0.1630859  c0.2871094,0,0.5722656-0.1240234,0.7685547-0.3598633c0.5576172-0.6694336,13.6669922-16.5776367,13.7939453-32.0693359  C85.3925781,32.4728394,78.5395508,28.5223389,74.25,27.9667969z M27.1162109,28.3847656  c1.2319336-0.255188,2.2851562-0.1431885,3.0234375,0.024353C28.8569336,30.3991699,27.927002,32.6060181,27.25,34.9338989  C27.0356445,33.4807129,26.9362793,31.3063354,27.1162109,28.3847656z M22.8789062,62.206543  c0.5097656,2.3120117,1.1259766,4.4638672,1.7451172,6.3579102c-1.3774414-2.1868896-2.8701172-4.7962646-4.2189941-7.6502075  c-2.739502-8.8051758-0.5371094-15.2950439-0.510498-15.3707886c0.0927734-0.2597656-0.0429688-0.5458984-0.3027344-0.6381836  c-0.2607422-0.0922852-0.5458984,0.0424805-0.6386719,0.3027344c-0.0895996,0.2507935-1.4760742,4.321228-0.7373047,10.4004517  c-1.2592773-3.59021-2.1159668-7.3763428-2.1464844-11.0947876c-0.0942383-11.5369873,6.355957-13.9695435,8.9262695-14.480957  c-0.0698242,3.2338257,0.184082,5.6132202,0.7600098,7.1154175C21.6010742,43.2299805,20.5991211,51.8724976,22.8789062,62.206543z   M48.5712891,72.3344727c-1.0053711,0-1.5905762-1.2084961-1.8688965-2.0097656  c0.4799805,0.0229492,0.9553223,0.0512695,1.454834,0.0512695c0.7419434,0,1.4431152-0.0340576,2.1259766-0.0827637  C50.0341797,71.1275635,49.5126953,72.3344727,48.5712891,72.3344727z M48.1572266,68.3759766  c-5.3740234,0-9.4414062-1.4165039-12.0869141-4.2104492c-3.5488281-3.746582-3.3359375-8.7983398-3.3310547-8.8984375  c0-0.0018921-0.0009766-0.003418-0.0007324-0.0053101c1.3635254-2.3106689,2.4882812-6.4047241,2.6872559-13.5855103  c1.9541016,3.6196289,5.6396484,7.9033203,12.3017578,8.6928711c0.4326172,0.0463867,0.8398438-0.1831055,1.0214844-0.5742188  c0.1826172-0.3916016,0.0898438-0.8583984-0.2265625-1.1538086c-0.0732422-0.0693359-1.2734375-1.222168-1.9707031-3.6376953  c2.0019531,2.6088867,5.3369141,5.6845703,10.3056641,6.565918c0.4189453,0.0737305,0.8349609-0.1240234,1.0449219-0.4921875  c0.2089844-0.3686523,0.1630859-0.8286133-0.1152344-1.1484375c-0.0244141-0.027832-1.9423828-2.2963867-1.2890625-5.8930664  c1.222168,3.5479736,3.7470703,9.2221069,7.8952637,11.552063c-0.041748,0.7141724-0.2207031,2.3262939-0.9550781,4.1790771  c-0.0700684,0.1055298-0.1169434,0.2210083-0.1428223,0.3490601C61.6894531,63.8615723,57.7631836,68.3759766,48.1572266,68.3759766  z M69.715332,28.319397c0.6884766-0.0971069,1.5720215-0.112915,2.5952148,0.1312866  c0.1679688,3.3112793-0.0073242,5.6670532-0.2946777,7.0820312c-0.0861816-0.6611938-0.1716309-1.3206177-0.2775879-2.0166016  C71.3706055,31.6516113,70.682373,29.9106445,69.715332,28.319397z M76.484375,62.206543  c2.2797852-10.3342285,1.277832-18.9768677-2.8769531-25.0582886c0.5766602-1.5036011,0.8303223-3.8858032,0.7602539-7.1234131  c2.5666504,0.4926147,9.0205078,2.8844604,8.9262695,14.4888306c-0.0305176,3.7182617-0.887207,7.5043335-2.1469727,11.0945435  c0.7392578-6.0791016-0.6472168-10.1494141-0.7368164-10.4002075c-0.0927734-0.2602539-0.3759766-0.3950195-0.6386719-0.3027344  c-0.2607422,0.0927734-0.3955078,0.3789062-0.3027344,0.6386719c0.0266113,0.0757446,2.2373047,6.5479126-0.5073242,15.3622437  c-1.3500977,2.8572998-2.8444824,5.4697266-4.2231445,7.6587524C75.3583984,66.6708984,75.9746094,64.519043,76.484375,62.206543z"/><text x="0" y="115" fill="#000000" font-size="5px" font-weight="bold" font-family="'Helvetica Neue', Helvetica, Arial-Unicode, Arial, Sans-serif">Created by Nook Fulloption</text><text x="0" y="120" fill="#000000" font-size="5px" font-weight="bold" font-family="'Helvetica Neue', Helvetica, Arial-Unicode, Arial, Sans-serif">from the Noun Project</text></svg>