<svg xmlns="http://www.w3.org/2000/svg" xmlns:xlink="http://www.w3.org/1999/xlink" version="1.1" x="0px" y="0px" viewBox="0 0 100 125" style="enable-background:new 0 0 100 100;" xml:space="preserve"><circle cx="39.6173096" cy="58.0959473" r="2.0625"/><circle cx="61.1173096" cy="58.0959473" r="2.0625"/><path d="M53.5546875,64.6796875c-0.2763672,0-0.5,0.2236328-0.5,0.5  c0,1.1845703-0.9638672,2.1484375-2.1494141,2.1484375c-1.1845703,0-2.1484375-0.9638672-2.1484375-2.1484375  c0-0.2763672-0.2236328-0.5-0.5-0.5s-0.5,0.2236328-0.5,0.5c0,1.7363281,1.4121094,3.1484375,3.1484375,3.1484375  s3.1494141-1.4121094,3.1494141-3.1484375C54.0546875,64.9033203,53.8310547,64.6796875,53.5546875,64.6796875z"/><path d="M65.9179688,21.0810547c-8.7753906-6.7421875-20.6845703-7.6298828-29.6347656-2.2099609  c-0.4726562,0.2861328-0.6240234,0.9013672-0.3378906,1.3730469c0.2871094,0.4726562,0.9052734,0.6240234,1.3730469,0.3378906  c8.2519531-4.9970703,19.2548828-4.1582031,27.3808594,2.0849609c5.0585938,3.8867188,15.9863281,15.6679688,8.640625,41.2822266  c-0.7644043,0.460083-3.1663818,1.6835938-6.9328613,1.7441406c1.6108398-2.6534424,2.1102295-5.3027344,2.2646484-6.6617432  c0.560791,0.1970215,1.1447754,0.3704834,1.7814941,0.487915c0.5537109,0.1035156,1.0654297-0.2597656,1.1650391-0.8017578  c0.1005859-0.5429688-0.2587891-1.0644531-0.8017578-1.1650391c-8.8623047-1.6347656-8.6933594-13.1884766-8.6816406-13.6796875  c0.0097656-0.4277344-0.2539062-0.8154297-0.6552734-0.9628906c-0.4033203-0.1464844-0.8525391-0.0224609-1.1220703,0.3095703  c-2.1884766,2.7080078-2.6826172,5.6904297-2.2177734,7.9189453l-14.5205078,0.046875c-0.0078125,0-0.015625,0-0.0234375,0  c-1.5859375,0-3.0703125-0.5458984-4.1835938-1.5371094c-2.6376953-2.3525391-3.421875-6.1845703-3.5791016-7.1240234  c-0.0126953-0.0810547-0.0244141-0.1621094-0.0371094-0.2431641c-0.0820312-0.5390625-0.5810547-0.9091797-1.1230469-0.8408203  c-0.5410156,0.0742188-0.9228516,0.5683594-0.8583984,1.1103516c0.0039062,0.0302734,0.0195312,0.1542969,0.0527344,0.3535156  c1.5371094,10.3886719-0.0712891,14.0048828-1.1757812,15.2382812c-0.7070312,0.7900391-1.3896484,0.7929688-1.4355469,0.7919922  c-0.5488281-0.0439453-1.0175781,0.3525391-1.0732422,0.8935547c-0.0576172,0.5488281,0.3408203,1.0410156,0.890625,1.0976562  c0.0273438,0.0029297,0.0908203,0.0087891,0.1845703,0.0087891c0.347168,0,1.1049805-0.0731201,1.9460449-0.6147461  c0.1588135,1.1799316,0.505249,2.7021484,1.217041,4.2911377c-1.6877441,0.059082-4.6745605-0.1326904-7.5205078-1.8170166  c-0.953125-2.8486328-7.4169922-23.9990234,5.3017578-37.9228516c0.3720703-0.4082031,0.34375-1.0410156-0.0634766-1.4130859  c-0.4082031-0.3701172-1.0400391-0.3447266-1.4130859,0.0634766C16.3222656,39.2900391,25.0439453,63.5625,25.1337891,63.8056641  c0.0761719,0.2070312,0.21875,0.3818359,0.4042969,0.5c3.0644531,1.9345703,6.2597656,2.3251953,8.3388672,2.3251953  c0.6590576,0,1.204834-0.0393066,1.6000977-0.0808105c0.4129639,0.6314697,0.8898926,1.2562256,1.4555664,1.8562012  c2.2854004,2.423584,5.4331055,3.9472656,9.3874512,4.5544434c-3.6070557,4.5009766-3.8032227,10.21875-3.8103027,10.4855957  c-0.0136719,0.5517578,0.4238281,1.0107422,0.9755859,1.0244141c0.0087891,0,0.0166016,0,0.0244141,0  c0.5410156,0,0.9863281-0.4316406,1-0.9755859c0.0008545-0.0559082,0.15979-4.8641357,2.9790039-8.7770996  c0.6320801,1.2861328,1.7248535,2.5026855,3.4165039,2.5026855c1.7111816,0,2.7591553-1.2700195,3.3387451-2.6159668  c2.8861084,3.9240723,3.0568848,8.8349609,3.0577393,8.8913574c0.0146484,0.5429688,0.4599609,0.9736328,1,0.9736328  c0.0078125,0,0.0166016,0,0.0253906,0c0.5517578-0.0146484,0.9882812-0.4716797,0.9746094-1.0234375  c-0.0070801-0.2692871-0.2069092-6.0921631-3.9127197-10.6115723c4.5917969-0.8496094,7.6060791-2.8769531,9.5819092-5.1693115  c0.0168457,0.0018311,0.0305176,0.0113525,0.0476074,0.0123291c0.3759766,0.0195312,0.7412109,0.0292969,1.0976562,0.0292969  c5.4482422,0,8.5351562-2.2158203,8.6728516-2.3154297c0.1767578-0.1298828,0.3066406-0.3154297,0.3681641-0.5263672  C83.0517578,37.8203125,71.3251953,25.2363281,65.9179688,21.0810547z M50.9052734,75.2207031  c-1.005127,0-1.5899658-1.2081299-1.868042-2.0092773c0.4799805,0.0229492,0.9552002,0.0512695,1.4549561,0.0512695  c0.7419434,0,1.4428711-0.0340576,2.1257324-0.0827637C52.3688965,74.0140381,51.847168,75.2207031,50.9052734,75.2207031z   M50.4921875,71.2626953c-5.3740234,0-9.4414062-1.4169922-12.0878906-4.2109375  c-3.5563965-3.755127-3.3344727-8.817627-3.3311768-8.8964844c1.0507812-1.9805908,1.5289307-4.9112549,1.4151611-8.7929688  c0.453125,0.6279297,0.9804688,1.2324219,1.59375,1.7783203c1.4794922,1.3193359,3.4365234,2.0449219,5.5136719,2.0449219  c0.0097656,0,0.0195312,0,0.0292969,0l15.8945312-0.0517578c0.34375-0.0009766,0.6621094-0.1777344,0.8447266-0.46875  c0.1816406-0.2910156,0.2021484-0.6552734,0.0537109-0.9648438c-0.4228516-0.8798828-0.7275391-2.5888672-0.0175781-4.5830078  c0.512207,3.3710938,2.0108643,8.4602051,6.3411865,11.027832C66.7299805,59.0947266,66.2670898,71.2626953,50.4921875,71.2626953z"/><path d="M29.4072266,19.6552734c-0.5302734,0.1542969-0.8359375,0.7089844-0.6826172,1.2392578  c0.1542969,0.5302734,0.7089844,0.8349609,1.2392578,0.6826172c0.0175781-0.0068359,1.9169922-0.5371094,3.2646484,0.8583984  c0.0410156,0.0429688,0.0849609,0.0820312,0.1318359,0.1152344c0.1748047,0.1269531,0.3808594,0.1904297,0.5869141,0.1904297  c0.2558594,0,0.5117188-0.0976562,0.7070312-0.2929688c0.3857422-0.3847656,0.3916016-1.0097656,0.0117188-1.4013672  c-0.0058594-0.0068359-0.0117188-0.0126953-0.0175781-0.0185547c-0.1162109-0.1269531-1.4013672-1.6181641-0.09375-4.6757812  c0.2167969-0.5078125-0.0195312-1.0947266-0.5273438-1.3125c-0.5048828-0.2148438-1.0947266,0.0185547-1.3125,0.5273438  c-0.6943359,1.6259766-0.8242188,2.9697266-0.7041016,4.0253906C30.6318359,19.3134766,29.4833984,19.6337891,29.4072266,19.6552734  z"/><text x="0" y="115" fill="#000000" font-size="5px" font-weight="bold" font-family="'Helvetica Neue', Helvetica, Arial-Unicode, Arial, Sans-serif">Created by Nook Fulloption</text><text x="0" y="120" fill="#000000" font-size="5px" font-weight="bold" font-family="'Helvetica Neue', Helvetica, Arial-Unicode, Arial, Sans-serif">from the Noun Project</text></svg>