<?xml version="1.0" encoding="utf-8"?>
<!-- Generator: Adobe Illustrator 25.4.1, SVG Export Plug-In . SVG Version: 6.00 Build 0)  -->
<svg version="1.1" xmlns="http://www.w3.org/2000/svg" xmlns:xlink="http://www.w3.org/1999/xlink" x="0px" y="0px"
	 viewBox="0 0 64 64" style="enable-background:new 0 0 64 64;" xml:space="preserve">
<style type="text/css">
	.st0{fill:#204D36;}
	.st1{fill:#F97F58;}
</style>
<g id="Layer_1">
	<path class="st0" d="M59.6,19.9c-0.5-1.2-1.2-2.4-1.8-3.6c-0.6-1-1.3-1.9-2-2.8c-0.7-0.9-2-1.1-2.9-0.4c-0.9,0.7-1.1,2-0.4,2.9l0,0
		c0.6,0.8,1.2,1.6,1.7,2.5c0.6,1,1.1,2,1.6,3.1C57.2,24.8,58,28.3,58,32c0,7.2-2.9,13.7-7.6,18.4C45.7,55.1,39.2,58,32,58
		c-7.2,0-13.7-2.9-18.4-7.6C8.9,45.7,6,39.2,6,32c0-7.2,2.9-13.7,7.6-18.4C18.3,8.9,24.8,6,32,6c1.7,0,3.4,0.2,5.1,0.5
		c1.1,0.2,2.2-0.5,2.4-1.6c0.2-1.1-0.5-2.2-1.6-2.4C36,2.1,34,1.9,32,1.9C15.4,1.9,1.9,15.4,1.9,32c0,16.6,13.5,30.1,30.1,30.1
		c16.6,0,30.1-13.5,30.1-30.1C62.1,27.7,61.2,23.6,59.6,19.9z M44.2,9.1c1.3,0.7,2.5,1.5,3.6,2.3c0.4,0.3,0.8,0.4,1.3,0.4
		c0.6,0,1.2-0.3,1.6-0.8c0.7-0.9,0.5-2.2-0.4-2.9c-1.3-1-2.7-1.9-4.2-2.7c-1-0.5-2.3-0.2-2.8,0.9C42.8,7.3,43.2,8.5,44.2,9.1z"/>
	<path class="st1" d="M20.1,32.9c1,1,2.5,1,3.5,0l6-6v16c0,1.4,1.1,2.5,2.5,2.5c1.4,0,2.5-1.1,2.5-2.5V27l6,6c1,1,2.5,1,3.5,0
		c1-1,1-2.5,0-3.5L33.7,19.3l0,0c0,0,0,0,0,0c0,0-0.1-0.1-0.1-0.1c0,0,0,0,0,0c0,0,0,0,0,0c0,0,0,0,0,0c0,0,0,0,0,0c0,0,0,0,0,0
		c0,0,0,0,0,0c0,0,0,0,0,0c0,0,0,0,0,0c0,0,0,0,0,0c0,0,0,0,0,0c0,0,0,0,0,0c0,0,0,0-0.1,0c0,0,0,0,0,0c0,0,0,0,0,0c0,0,0,0,0,0
		c0,0,0,0-0.1,0c0,0,0,0,0,0c0,0,0,0-0.1,0c0,0,0,0-0.1,0c0,0,0,0,0,0c-0.1,0-0.1-0.1-0.2-0.1c0,0,0,0,0,0c0,0,0,0-0.1,0
		c0,0,0,0-0.1,0c0,0,0,0,0,0c0,0,0,0-0.1,0c0,0,0,0,0,0c0,0-0.1,0-0.1,0c0,0,0,0,0,0c0,0-0.1,0-0.1,0c0,0,0,0,0,0c0,0-0.1,0-0.1,0
		c0,0,0,0,0,0c0,0-0.1,0-0.1,0c0,0,0,0,0,0c0,0-0.1,0-0.1,0c0,0,0,0,0,0c0,0,0,0,0,0c0,0-0.1,0-0.1,0c0,0,0,0,0,0c0,0-0.1,0-0.1,0
		c0,0,0,0,0,0c0,0-0.1,0-0.1,0c0,0,0,0,0,0c0,0-0.1,0-0.1,0c0,0,0,0,0,0c0,0,0,0-0.1,0c0,0,0,0,0,0c0,0-0.1,0-0.1,0c0,0,0,0,0,0
		c0,0-0.1,0-0.1,0c0,0,0,0,0,0c0,0-0.1,0-0.1,0c0,0,0,0,0,0c0,0-0.1,0-0.1,0c0,0,0,0,0,0c-0.1,0-0.1,0.1-0.2,0.1c0,0,0,0,0,0
		c-0.1,0-0.1,0.1-0.2,0.1c0,0,0,0,0,0c-0.1,0-0.1,0.1-0.2,0.1c0,0,0,0,0,0c0,0-0.1,0-0.1,0.1L20.1,29.4C19.1,30.4,19.1,32,20.1,32.9
		z"/>
	<g>
		<circle class="st1" cx="108.5" cy="32" r="30.1"/>
		<circle class="st0" cx="108.5" cy="32" r="26"/>
		<path class="st1" d="M96.5,32.9c1,1,2.5,1,3.5,0l6-6v16c0,1.4,1.1,2.5,2.5,2.5c1.4,0,2.5-1.1,2.5-2.5V27l6,6c1,1,2.5,1,3.5,0
			c1-1,1-2.5,0-3.5l-10.2-10.2l0,0c0,0,0,0,0,0c0,0-0.1-0.1-0.1-0.1c0,0,0,0,0,0c0,0,0,0,0,0c0,0,0,0,0,0c0,0,0,0,0,0c0,0,0,0,0,0
			c0,0,0,0,0,0c0,0,0,0,0,0c0,0,0,0,0,0c0,0,0,0,0,0c0,0,0,0,0,0c0,0,0,0,0,0c0,0,0,0-0.1,0c0,0,0,0,0,0c0,0,0,0,0,0c0,0,0,0,0,0
			c0,0,0,0-0.1,0c0,0,0,0,0,0c0,0,0,0-0.1,0c0,0,0,0-0.1,0c0,0,0,0,0,0c-0.1,0-0.1-0.1-0.2-0.1c0,0,0,0,0,0c0,0,0,0-0.1,0
			c0,0,0,0-0.1,0c0,0,0,0,0,0c0,0,0,0-0.1,0c0,0,0,0,0,0c0,0-0.1,0-0.1,0c0,0,0,0,0,0c0,0-0.1,0-0.1,0c0,0,0,0,0,0c0,0-0.1,0-0.1,0
			c0,0,0,0,0,0c0,0-0.1,0-0.1,0c0,0,0,0,0,0c0,0-0.1,0-0.1,0c0,0,0,0,0,0c0,0,0,0,0,0c0,0-0.1,0-0.1,0c0,0,0,0,0,0c0,0-0.1,0-0.1,0
			c0,0,0,0,0,0c0,0-0.1,0-0.1,0c0,0,0,0,0,0c0,0-0.1,0-0.1,0c0,0,0,0,0,0c0,0-0.1,0-0.1,0c0,0,0,0,0,0c0,0-0.1,0-0.1,0c0,0,0,0,0,0
			c0,0-0.1,0-0.1,0c0,0,0,0,0,0c0,0-0.1,0-0.1,0c0,0,0,0,0,0c0,0-0.1,0-0.1,0c0,0,0,0,0,0c-0.1,0-0.1,0.1-0.2,0.1c0,0,0,0,0,0
			c-0.1,0-0.1,0.1-0.2,0.1c0,0,0,0,0,0c-0.1,0-0.1,0.1-0.2,0.1c0,0,0,0,0,0c0,0-0.1,0-0.1,0.1L96.5,29.4
			C95.6,30.4,95.6,32,96.5,32.9z"/>
	</g>
</g>
<g id="Layer_2">
</g>
</svg>
